<?xml version="1.0" encoding="UTF-8" standalone="no"?>
<!-- Created with Inkscape (http://www.inkscape.org/) -->

<svg
   width="16mm"
   height="16mm"
   viewBox="0 0 16 16"
   version="1.1"
   id="svg5"
   inkscape:version="1.1 (c68e22c387, 2021-05-23)"
   sodipodi:docname="favico2.svg"
   xmlns:inkscape="http://www.inkscape.org/namespaces/inkscape"
   xmlns:sodipodi="http://sodipodi.sourceforge.net/DTD/sodipodi-0.dtd"
   xmlns="http://www.w3.org/2000/svg"
   xmlns:svg="http://www.w3.org/2000/svg">
  <sodipodi:namedview
     id="namedview7"
     pagecolor="#ffffff"
     bordercolor="#666666"
     borderopacity="1.0"
     inkscape:pageshadow="2"
     inkscape:pageopacity="0.0"
     inkscape:pagecheckerboard="0"
     inkscape:document-units="px"
     showgrid="false"
     inkscape:zoom="8.7887579"
     inkscape:cx="6.5424489"
     inkscape:cy="20.992727"
     inkscape:window-width="1920"
     inkscape:window-height="1177"
     inkscape:window-x="1912"
     inkscape:window-y="-8"
     inkscape:window-maximized="1"
     inkscape:current-layer="layer1" />
  <defs
     id="defs2" />
  <g
     inkscape:label="Layer 1"
     inkscape:groupmode="layer"
     id="layer1">
    <path
       d="m 0.04667014,3.8166863 c 0,0.013675 0.78905646,1.2007391 1.74964756,2.6347633 L 3.5459648,9.0587694 V 10.952505 12.84624 H 4.9525445 6.3591242 V 10.952505 9.0587694 L 8.0401575,6.5543622 C 8.9664416,5.1752364 9.7554994,3.9882207 9.7966659,3.9196073 9.8584185,3.7960988 9.8103909,3.7892446 8.3214735,3.7892446 H 6.7776671 L 5.8719675,5.2987449 C 5.3710879,6.1289684 4.9525445,6.794525 4.9319604,6.7739458 4.9113778,6.7533666 4.5065562,6.0878 4.0262608,5.2850198 L 3.1548677,3.8235505 1.597338,3.8029713 c -0.85080901,-0.00684 -1.55066786,0 -1.55066786,0.013675 z"
       id="path50"
       style="fill:#000000;stroke:none;stroke-width:0.00686139" />
    <path
       d="M 9.5997259,2.3349231 C 8.0240413,2.5760948 7.0275288,3.1673546 6.50798,4.1942812 6.320602,4.5521489 6.2865334,4.754422 6.2780152,5.2601047 c 0,0.5523627 0.034067,0.6846182 0.2810692,1.1436225 0.5451,1.0191468 1.6778886,1.6026185 4.1649146,2.1549879 1.013546,0.2256207 1.524581,0.4512246 1.728993,0.7468545 0.255517,0.3734272 0.221448,0.7546424 -0.08517,1.0813914 -0.332173,0.342308 -0.723964,0.458996 -1.388306,0.420106 C 10.017071,10.744862 9.5230739,10.379173 9.2505219,9.5078427 L 9.114249,9.0955251 8.4584225,9.1422202 c -0.3577239,0.023348 -1.0816849,0.070043 -1.6097514,0.09339 -0.5280663,0.031186 -0.9709629,0.077714 -0.987996,0.1010615 -0.068138,0.1167377 0.2214471,1.0969343 0.4599297,1.5326163 0.5451019,1.019136 1.4649574,1.625955 2.8362291,1.859347 0.8687561,0.147757 2.8106791,0.147757 3.5942651,0 1.354234,-0.256739 2.418886,-0.995805 2.963988,-2.03829 0.246999,-0.482343 0.272549,-0.591259 0.272549,-1.3069949 0,-0.6768451 -0.03407,-0.8324398 -0.221446,-1.205867 C 15.187021,7.0494301 14.309747,6.574858 11.626825,5.9524776 10.81769,5.765764 10.034107,5.5557112 9.8978298,5.4934733 c -0.5365837,-0.2489498 -0.5280665,-0.7779733 0,-1.1125019 0.3832742,-0.233392 1.1583422,-0.2411717 1.6778942,-0.00784 0.306616,0.1322638 0.408825,0.2411718 0.630272,0.6612774 0.195895,0.3812069 0.298101,0.4979029 0.400311,0.466784 0.07665,-0.015509 0.669044,0.039424 1.393006,0.00834 0.723962,0.014175 1.557856,0.015009 1.634511,-0.00834 C 15.965998,5.4156593 15.280711,3.8363766 14.675986,3.2840156 14.27568,2.9183681 13.713544,2.6382977 12.998096,2.4593638 12.427443,2.3115572 10.281105,2.2337515 9.5997294,2.3348881 Z"
       id="path36"
       style="fill:#000000;stroke:none;stroke-width:0.00814015"
       sodipodi:nodetypes="sccccccccccccccccscccccccccscss" />
  </g>
</svg>
