<?xml version="1.0" encoding="UTF-8" standalone="no"?>
<svg
   version="1.0"
   width="1280.000000pt"
   height="911.000000pt"
   viewBox="0 0 1280.000000 911.000000"
   preserveAspectRatio="xMidYMid meet"
   id="svg58"
   sodipodi:docname="1443377.svg"
   inkscape:version="1.1 (c68e22c387, 2021-05-23)"
   xmlns:inkscape="http://www.inkscape.org/namespaces/inkscape"
   xmlns:sodipodi="http://sodipodi.sourceforge.net/DTD/sodipodi-0.dtd"
   xmlns="http://www.w3.org/2000/svg"
   xmlns:svg="http://www.w3.org/2000/svg">
  <defs
     id="defs62" />
  <sodipodi:namedview
     id="namedview60"
     pagecolor="#ffffff"
     bordercolor="#666666"
     borderopacity="1.0"
     inkscape:pageshadow="2"
     inkscape:pageopacity="0.0"
     inkscape:pagecheckerboard="0"
     inkscape:document-units="pt"
     showgrid="false"
     inkscape:zoom="0.61992188"
     inkscape:cx="852.52678"
     inkscape:cy="607.33459"
     inkscape:window-width="1920"
     inkscape:window-height="1057"
     inkscape:window-x="-8"
     inkscape:window-y="117"
     inkscape:window-maximized="1"
     inkscape:current-layer="svg58" />
  <metadata
     id="metadata2">
Created by potrace 1.15, written by Peter Selinger 2001-2017
</metadata>
  <path
     d="m 452.5,41.1 c -22.1,2.1 -39.3,12.8 -48.5,30 -8.8,16.5 -10.4,46.6 -3.6,65.5 7.3,20 21.6,33.2 41.2,38.1 8.8,2.1 34.3,2.4 42.4,0.4 15.6,-3.8 27.9,-13.8 34.9,-28.3 3.5,-7.3 6.1,-15.8 4.9,-15.8 -0.3,0 -7.8,-2.2 -16.9,-5 -9,-2.7 -16.8,-5 -17.4,-5 -0.5,0 -1.8,2.7 -2.7,5.9 -3.5,11.8 -11.1,18.2 -22.4,18.9 -15.6,1 -23.9,-7 -26.5,-25.4 -1.3,-9.3 -0.6,-23.8 1.5,-30.9 5.2,-17.4 26.7,-24.1 39.9,-12.4 2.5,2.1 5.2,5.7 6.1,7.9 0.9,2.3 2.3,4 3.2,4 2.1,0 33.7,-6.9 34.2,-7.5 1,-1 -5.3,-13.9 -9.3,-19.4 C 505.8,51.7 496.3,45.6 483,42.6 474.5,40.8 462.4,40.1 452.5,41.1 Z"
     id="path4"
     style="fill:#000000;stroke:none;stroke-width:0.1" />
  <path
     d="m 1189,41 c -29.1,2.8 -48.9,18.9 -56.2,45.7 -3.1,11.4 -3.1,32.7 0,43.6 5,17.7 16.3,32.6 29.5,39 11.3,5.5 19.5,7 37.7,7.1 26.3,0.1 37.5,-3.4 62.8,-19.5 l 2.2,-1.4 -0.2,-28 -0.3,-28 -31.2,-0.3 L 1202,99 v 14 14 h 13.5 13.6 l -0.3,6.2 -0.3,6.3 -6.5,3.2 c -16.2,7.9 -33.8,6.2 -42.6,-4.1 -9.2,-10.8 -11,-38.7 -3.3,-54.3 4.7,-9.8 12.6,-14.3 24.8,-14.3 9.5,0 16,3.2 19.7,9.7 1.5,2.6 2.8,4.9 2.9,5.1 0.2,0.3 38.7,-6.7 39.2,-7.2 0.7,-0.7 -4.4,-12.4 -7.5,-16.8 -6.7,-9.8 -16,-15.7 -28.9,-18.2 -8.6,-1.7 -27.5,-2.5 -37.3,-1.6 z"
     id="path6"
     style="fill:#000000;stroke:none;stroke-width:0.1" />
  <path
     d="M 55.2,67.2 C 50.2,80.6 39.1,110.1 30.6,132.9 22,155.6 15,174.4 15,174.6 c 0,0.2 9.4,0.4 20.8,0.4 h 20.9 l 1.2,-4.3 c 0.7,-2.3 2.2,-7.2 3.3,-11 l 2,-6.7 23.1,0.2 23.1,0.3 3.4,10.8 3.3,10.7 21.2,-0.2 c 13.4,-0.2 21.1,-0.7 21,-1.3 C 158.1,172.1 110.2,45.1 109.5,44 109.1,43.4 99.8,43 86.6,43 H 64.3 Z M 94,101.9 100.7,124 H 86.4 72.1 l 0.9,-2.8 c 0.5,-1.5 3.4,-11 6.5,-21.2 6.9,-22.9 6.4,-21.4 7.1,-20.7 0.3,0.3 3.6,10.5 7.4,22.6 z"
     id="path8"
     style="fill:#000000;stroke:none;stroke-width:0.1" />
  <path
     d="m 218,109.1 v 66.1 l 41.3,-0.5 c 52.6,-0.6 58.3,-1.5 68.8,-11.4 6.1,-5.7 9.5,-12 10.7,-19.9 1.8,-11.1 -1.1,-22 -7.6,-28.8 -3.6,-3.7 -14.1,-9.6 -17.2,-9.6 -0.8,0 0.5,-1.2 3,-2.6 5.9,-3.3 10.7,-7.9 13.3,-12.9 1.8,-3.3 2.2,-5.6 2.2,-14 0,-8.5 -0.3,-10.6 -2.2,-14 -4.5,-8.1 -10.9,-13.4 -20,-16.4 C 304.4,43.1 302,43 261,43 h -43 z m 72.1,-35.3 c 2.3,2.6 2.9,4.1 2.9,8 0,9.7 -4.5,12.2 -22,12.2 H 259 V 81.9 69.8 l 14.1,0.4 14.1,0.3 z m 0.8,47.8 c 5.2,2 7.1,5.1 7.1,11.3 0,3.9 -0.6,5.6 -2.6,8 -3.5,4.2 -7.7,5.1 -23.1,5.1 H 259 v -13 -13 h 14 c 10.4,0 15,0.4 17.9,1.6 z"
     id="path10"
     style="fill:#000000;stroke:none;stroke-width:0.1" />
  <path
     d="m 585.2,108.7 0.3,65.8 h 35 c 38,0 44.7,-0.7 56.2,-6 10.8,-4.9 22.5,-18.8 26.3,-31.3 4.2,-13.7 4.5,-38.4 0.5,-53.7 C 699.7,68.6 688.9,54.4 677,48.7 666.6,43.6 660.8,43 621.2,43 H 585 Z m 67.2,-32.8 c 6.2,3.1 10,8.9 11.7,18 1.6,9 0.7,32.3 -1.4,37.1 -2.2,4.9 -5.4,8.8 -8.9,10.6 -3.5,1.8 -19.7,3.6 -24.5,2.8 L 626,143.8 V 108.3 72.8 l 10.8,0.4 c 8.7,0.3 11.6,0.8 15.6,2.7 z"
     id="path12"
     style="fill:#000000;stroke:none;stroke-width:0.1" />
  <path
     d="m 791,109 v 66 h 55.5 55.5 v -15 -15 h -33.4 c -18.4,0 -34.1,-0.3 -35,-0.6 -1.3,-0.5 -1.6,-2.6 -1.6,-13 V 119 H 863.5 895 V 105.5 92 H 863.5 832 V 81.5 71 h 34 34 V 57 43 H 845.5 791 Z"
     id="path14"
     style="fill:#000000;stroke:none;stroke-width:0.1" />
  <path
     d="m 975.2,108.7 0.3,65.8 h 20.5 20.5 l 0.3,-26.8 0.2,-26.7 h 25.5 25.5 V 107.5 94 H 1042.5 1017 V 82.5 71 h 30 30 V 57 43 h -51 -51 z"
     id="path16"
     style="fill:#000000;stroke:none;stroke-width:0.1" />
  <path
     d="m 531.2,334.2 0.3,66.3 20.3,0.3 20.2,0.2 v -16.2 l 0.1,-16.3 10.4,-11 c 5.7,-6 10.6,-10.8 10.8,-10.5 0.3,0.3 6.6,12.5 14.2,27.2 l 13.7,26.8 h 24.9 c 13.7,0 24.9,-0.2 24.9,-0.5 0,-0.4 -44.3,-73.3 -48.7,-80.1 -1.2,-1.9 0.2,-3.6 22.2,-26.5 12.9,-13.4 23.5,-24.7 23.5,-25.2 0,-0.4 -12,-0.6 -26.7,-0.5 l -26.7,0.3 -21.1,24.5 -21,24.5 -0.3,-24.8 L 572,268 H 551.5 531 Z"
     id="path18"
     style="fill:#000000;stroke:none;stroke-width:0.1" />
  <path
     d="m 22,335 v 66 H 42.5 63 V 374.5 348 h 22 22 v 26.5 26.5 h 21 21 l -0.2,-65.8 -0.3,-65.7 H 128 107.5 L 107.2,292.2 107,315 H 85 63 V 292 269 H 42.5 22 Z"
     id="path20"
     style="fill:#000000;stroke:none;stroke-width:0.1" />
  <path
     d="m 228.7,269.7 c -0.4,0.3 -0.7,30 -0.7,65.9 v 65.2 l 2.3,0.6 c 1.2,0.3 10.4,0.6 20.5,0.6 H 269 V 335.5 269 h -19.8 c -10.9,0 -20.2,0.3 -20.5,0.7 z"
     id="path22"
     style="fill:#000000;stroke:none;stroke-width:0.1" />
  <path
     d="m 891,335 v 66 l 2.3,0.5 c 1.2,0.3 8.7,0.4 16.7,0.3 l 14.5,-0.3 0.5,-47.9 0.5,-47.9 12,46.8 c 6.5,25.7 12.5,47.4 13.3,48.2 1.1,1 4.5,1.3 15.5,1.1 l 14.2,-0.3 12.5,-48.8 12.5,-48.8 0.3,48.5 0.2,48.5 3.3,0.6 c 1.7,0.3 9.3,0.5 16.7,0.3 l 13.5,-0.3 v -66 -66 l -26.7,-0.3 -26.6,-0.2 -1.6,5.2 c -0.8,2.9 -5.4,20.8 -10.2,39.7 -6.1,23.7 -9,33.8 -9.6,32.5 -0.4,-1 -4.9,-17.9 -9.9,-37.4 -5,-19.5 -9.5,-36.5 -10,-37.7 L 944,269 H 917.5 891 Z"
     id="path24"
     style="fill:#000000;stroke:none;stroke-width:0.1" />
  <path
     d="m 1132.7,269.6 c -0.4,0.4 -0.7,30.1 -0.7,66 v 65.3 l 3.3,0.6 c 1.7,0.3 10.4,0.5 19.2,0.3 l 16,-0.3 0.5,-35.4 c 0.4,-26.2 0.8,-35 1.6,-34 0.6,0.8 11.4,16.5 23.9,34.9 12.6,18.4 23.3,33.8 23.9,34.2 0.6,0.5 9.4,0.7 19.6,0.5 l 18.5,-0.2 v -66 -66 h -19 -19 l -0.5,36 -0.5,35.9 -24.5,-35.9 -24.5,-36 -18.6,-0.3 c -10.2,-0.1 -18.8,0.1 -19.2,0.4 z"
     id="path26"
     style="fill:#000000;stroke:none;stroke-width:0.1" />
  <path
     d="m 727,336 v 66 h 52.5 52.5 v -16 -16 h -30.4 c -16.7,0 -31.1,-0.3 -32,-0.6 -1.4,-0.5 -1.6,-5.9 -1.6,-50 V 270 H 747.5 727 Z"
     id="path28"
     style="fill:#000000;stroke:none;stroke-width:0.1" />
  <path
     d="m 415.7,316.2 c -0.2,31.3 -0.7,46.4 -1.6,49 -3.6,11.2 -18.2,11.9 -22.7,1.2 -0.8,-1.9 -1.4,-5 -1.4,-7.1 0,-6.8 0.4,-6.7 -20.5,-3.9 -10.3,1.4 -18.9,2.7 -19.1,2.9 -0.7,0.7 1.8,13 3.6,18 7.4,19.8 22.9,28.7 50.1,28.7 10.9,0 18.8,-1.5 26.4,-4.9 7.8,-3.6 16.7,-11.8 20,-18.4 5.3,-10.9 5.7,-15.4 6.2,-65 l 0.5,-45.7 h -20.5 -20.5 z"
     id="path30"
     style="fill:#000000;stroke:none;stroke-width:0.1" />
  <path
     d="m 474.5,493.1 c -28,3.3 -47.7,20.1 -54.1,46.4 -2.5,9.8 -2.5,33.6 -0.1,42.5 3.1,11.8 8.3,20.8 16.6,29 9.1,9 17.4,13.4 30.6,16.1 14.9,3.1 38.1,1.9 48.6,-2.5 3.3,-1.4 3.5,-1.3 8,2 7.5,5.5 22.1,14.4 23.6,14.4 1.2,0 11.3,-19.4 11.3,-21.7 0,-0.4 -2.8,-2.3 -6.3,-4.1 -3.4,-1.9 -7.5,-4.4 -9.1,-5.7 l -2.9,-2.3 2,-2.8 c 3.7,-5.3 7.4,-13.5 9.5,-21.2 1.7,-6.2 2.1,-10.6 2.1,-22.7 0,-17.1 -1.8,-26 -7.5,-36.8 -4.5,-8.6 -15.5,-19.4 -24,-23.5 -13,-6.3 -31.4,-9 -48.3,-7.1 z m 24,33.3 c 2.8,1.3 6,3.4 7.2,4.7 5.7,6.2 9,20.6 7.9,34.9 -0.5,8.4 -2.9,18.4 -4.5,19.4 -0.4,0.3 -3.8,-1.5 -7.5,-4 -13.7,-9.2 -16.4,-9.4 -19.9,-1.7 -1.4,3.2 -2.7,6.4 -2.9,7.1 -0.2,0.6 2.8,2.9 6.6,5 9.3,5.1 9.5,6.2 0.9,6.2 -12.9,0 -21.2,-6.3 -25,-18.9 -2.5,-8.1 -2.5,-29.7 0,-36.8 4.4,-12.4 12.4,-18.3 25.2,-18.3 5.3,0 8.2,0.6 12,2.4 z"
     id="path32"
     style="fill:#000000;stroke:none;stroke-width:0.1" />
  <path
     d="m 82.3,496 c -26,3.8 -45.1,20.4 -51.3,44.5 -2.7,10.6 -3.5,24.1 -2.1,35 3.6,26.8 18.3,45.3 41.6,52.4 13.5,4.2 38.6,4.4 51.5,0.6 29.3,-8.8 44.4,-33.5 42.7,-70 -0.7,-13.8 -2.3,-21.2 -7.2,-31 -8.5,-17.4 -25,-28.4 -46.8,-31.4 -8.7,-1.2 -20.5,-1.2 -28.4,-0.1 z m 26.5,32.9 c 5.4,2.8 10.6,8.9 12.8,15.2 2.6,7.3 2.6,29.8 0.1,38 -3.4,11.2 -10.4,17.1 -22,18.5 -13.1,1.5 -24.5,-5.9 -28.2,-18.7 -2.7,-8.7 -2.7,-27.8 -0.1,-36.6 2.8,-9.5 9.3,-16.1 18.1,-18.4 4.7,-1.3 15,-0.2 19.3,2 z"
     id="path34"
     style="fill:#000000;stroke:none;stroke-width:0.1" />
  <path
     d="m 883.5,496.9 c -18.5,3.1 -30.2,10.7 -36.3,23.9 -2.2,4.6 -2.6,7.2 -2.7,13.7 0,7.1 0.4,8.8 3.3,14.7 6.4,13.1 19.7,20.6 48.9,27.7 11.9,2.9 17.9,5.8 20.3,9.6 3,4.8 2.6,9.7 -1,13.9 -3.9,4.4 -8.5,5.9 -16.3,5.4 -11.3,-0.8 -17.1,-5.5 -20.3,-16.7 l -1.6,-5.3 -7.7,0.6 c -4.2,0.3 -12.7,0.9 -18.9,1.2 -6.2,0.4 -11.4,1 -11.6,1.3 -0.8,1.5 2.6,14.1 5.4,19.7 6.4,13.1 17.2,20.9 33.3,23.9 10.2,1.9 33,1.9 42.2,0 15.9,-3.3 28.4,-12.8 34.8,-26.2 2.9,-6.2 3.2,-7.6 3.2,-16.8 0,-8.7 -0.4,-10.7 -2.6,-15.5 -6.8,-14.5 -17.1,-20.6 -48.6,-28.6 -9.5,-2.4 -18.7,-5.1 -20.3,-5.9 -6.3,-3.2 -6.2,-10 0,-14.3 4.5,-3 13.6,-3.1 19.7,-0.1 3.6,1.7 4.8,3.1 7.4,8.5 2.3,4.9 3.5,6.4 4.7,6 0.9,-0.2 8.7,-0.7 17.2,-1.1 8.5,-0.3 16.2,-0.8 17.1,-1.1 3.9,-1.1 -2.9,-19.2 -10,-26.3 -4.7,-4.7 -11.3,-8.3 -19.7,-10.6 -6.7,-1.9 -31.9,-2.9 -39.9,-1.6 z"
     id="path36"
     style="fill:#000000;stroke:none;stroke-width:0.1" />
  <path
     d="m 237,563 v 66 h 21 21 V 604.5 580 h 16.3 c 18.4,0 25.8,-1.3 34.9,-6.2 14.4,-7.7 21.7,-24.5 18.9,-43.4 -2.1,-14.3 -8.3,-23.6 -19.2,-28.6 -9.3,-4.4 -13.7,-4.8 -54.4,-4.8 H 237 Z m 62.4,-37.9 c 4.9,1.4 8.1,4.6 9.7,9.7 1,3.5 0.9,4.8 -0.5,8.6 -2.7,7 -6.7,9 -19.3,9.4 L 279,553.2 V 538.6 524 h 8.3 c 4.5,0 9.9,0.5 12.1,1.1 z"
     id="path38"
     style="fill:#000000;stroke:none;stroke-width:0.1" />
  <path
     d="m 637,563 v 66 h 20.5 20.5 l 0.2,-26.8 0.3,-26.7 4.4,0.3 c 5.3,0.3 9.3,2.3 11.9,5.9 1.1,1.6 7.3,12.6 13.8,24.6 6.4,12.1 12.2,22.1 12.8,22.3 0.7,0.2 11.1,0.3 23.3,0.2 l 22.2,-0.3 -11,-21.1 C 744,584.5 738.2,576.7 730.3,572.6 l -4.5,-2.2 4.4,-1.3 c 9.6,-2.8 18.9,-10.8 23.1,-19.9 3.2,-6.8 3.2,-24.6 0.1,-31.3 -3,-6.4 -8.8,-12.6 -14.8,-15.6 -9,-4.6 -16.6,-5.2 -60.8,-5.3 H 637 Z m 70.9,-37.4 c 7.4,2.9 9.4,13.4 3.7,19.3 -3.5,3.6 -10.2,5.1 -23.2,5.1 H 678 v -13 -13 h 13 c 9.5,0 14,0.4 16.9,1.6 z"
     id="path40"
     style="fill:#000000;stroke:none;stroke-width:0.1" />
  <path
     d="M 1070,514.5 V 531 h 21 21 v 49.5 49.5 h 20.5 20.5 V 580.5 531 h 20.5 20.5 V 514.5 498 h -62 -62 z"
     id="path42"
     style="fill:#000000;stroke:none;stroke-width:0.1" />
  <path
     d="m 415,725.2 c 0,0.7 6.5,30.3 14.4,65.8 l 14.3,64.5 20.1,0.3 20.1,0.2 1.4,-4.7 c 0.8,-2.7 5.9,-20.9 11.3,-40.5 6.1,-22.1 10.2,-35.2 10.6,-34.3 0.5,0.8 5.7,18.8 11.7,40.2 l 10.9,38.8 20,0.3 c 18.5,0.2 20.1,0.1 20.6,-1.5 0.6,-2 21.2,-95.8 25.2,-114.3 1.3,-6.3 2.6,-12.5 2.9,-13.8 L 599,724 h -19.3 -19.3 l -3.7,19.7 c -2.1,10.9 -5.2,27.1 -6.9,36.1 -1.7,9 -3.2,16.1 -3.5,15.9 -0.2,-0.3 -4.8,-16.4 -10.2,-35.8 l -9.7,-35.4 -19.5,-0.3 -19.4,-0.2 -7.9,28.7 c -4.4,15.9 -8.9,32.2 -10.1,36.3 -2.2,7.4 -2.3,7.4 -3,4 -0.4,-1.9 -3.5,-18.1 -6.8,-36 l -6.2,-32.5 -19.3,-0.3 c -15,-0.2 -19.2,0 -19.2,1 z"
     id="path44"
     style="fill:#000000;stroke:none;stroke-width:0.1" />
  <path
     d="m 18.3,769.2 c 0.3,38.7 0.6,45.1 2.2,50.8 2.7,9.9 7.1,17.8 13.4,24.1 10.6,10.6 20.3,13.7 44.6,14.6 18.1,0.6 28.7,-0.8 38.2,-5.2 7.4,-3.3 19,-15.1 22.6,-22.7 5.4,-11.4 5.7,-14.6 5.7,-62.1 V 725 H 124.5 104 v 43.7 c 0,40.4 -0.2,44.1 -1.9,47.8 -3.6,7.8 -10.2,11.5 -20.3,11.5 -7.2,0 -12.9,-2.3 -17,-6.6 -5.2,-5.6 -5.2,-5.8 -5.6,-52.7 L 58.9,725 H 38.4 17.8 Z"
     id="path46"
     style="fill:#000000;stroke:none;stroke-width:0.1" />
  <path
     d="m 222.9,732.7 c 2.7,7.5 7.2,19.5 34.4,91.3 l 12.3,32.5 22.1,0.3 22.1,0.2 1,-2.7 c 0.5,-1.6 11.2,-30.1 23.6,-63.6 12.4,-33.4 22.8,-61.8 23.2,-63.2 l 0.6,-2.5 h -20.5 -20.6 l -2.5,8.2 c -17.3,56.5 -26.2,84.6 -26.7,84 -0.6,-0.6 -28.9,-90.5 -28.9,-91.7 0,-0.3 -9.7,-0.5 -21.5,-0.5 H 220 Z"
     id="path48"
     style="fill:#000000;stroke:none;stroke-width:0.1" />
  <path
     d="m 905,725.4 c 0,0.2 11.5,17.5 25.5,38.4 l 25.5,38 v 27.6 27.6 h 20.5 20.5 v -27.6 -27.6 l 24.5,-36.5 c 13.5,-20.1 25,-37.4 25.6,-38.4 0.9,-1.8 0.2,-1.9 -21.5,-1.9 h -22.5 l -13.2,22 c -7.3,12.1 -13.4,21.8 -13.7,21.5 -0.3,-0.3 -6.2,-10 -13.2,-21.7 l -12.7,-21.3 -22.7,-0.3 c -12.4,-0.1 -22.6,0 -22.6,0.2 z"
     id="path50"
     style="fill:#000000;stroke:none;stroke-width:0.1" />
  <path
     d="m 1109,739 v 14 l 32.7,0.2 32.8,0.3 -36.8,38.2 -36.8,38.3 0.3,13.2 0.3,13.3 62.8,0.3 62.8,0.2 -0.3,-14.2 -0.3,-14.3 -37.6,-0.5 -37.6,-0.5 36.3,-37.9 36.4,-37.9 V 738.4 725 h -57.5 -57.5 z"
     id="path52"
     style="fill:#000000;stroke:none;stroke-width:0.1" />
  <path
     d="m 691,726.9 c 0,0.5 9,14.7 20,31.5 11,16.8 20,30.8 20,31.1 0,0.3 -10.1,15.8 -22.5,34.5 l -22.4,34 h 22.9 22.8 l 12.5,-20.2 c 6.9,-11.2 12.9,-20.3 13.4,-20.3 0.4,0 6.4,9.1 13.2,20.3 l 12.4,20.2 h 22.9 c 18.1,0 22.8,-0.3 22.2,-1.3 -0.5,-0.6 -10.4,-15.8 -22.1,-33.6 -11.8,-17.9 -21.2,-32.9 -21,-33.5 0.3,-0.6 9.1,-14.5 19.7,-31 10.5,-16.4 19.4,-30.5 19.7,-31.2 0.4,-1.2 -3.2,-1.4 -21.5,-1.4 h -22.1 l -11.2,20.1 c -6.1,11 -11.5,19.7 -12,19.2 -0.5,-0.5 -5.7,-9.4 -11.7,-19.8 l -11,-19 -22.1,-0.3 c -13.6,-0.1 -22.1,0.1 -22.1,0.7 z"
     id="path54"
     style="fill:#000000;stroke:none;stroke-width:0.1" />
</svg>
