<?xml version="1.0" encoding="UTF-8" standalone="no"?>
<!-- Created with Inkscape (http://www.inkscape.org/) -->

<svg
   width="1024mm"
   height="1024mm"
   viewBox="0 0 1024 1024"
   version="1.1"
   id="svg5"
   inkscape:version="1.1 (c68e22c387, 2021-05-23)"
   sodipodi:docname="favico3.svg"
   inkscape:export-filename="D:\Google Drive\Website\Kalvin - Portfolio Template\html\My-website\media\favico2.png"
   inkscape:export-xdpi="25.4"
   inkscape:export-ydpi="25.4"
   xmlns:inkscape="http://www.inkscape.org/namespaces/inkscape"
   xmlns:sodipodi="http://sodipodi.sourceforge.net/DTD/sodipodi-0.dtd"
   xmlns="http://www.w3.org/2000/svg"
   xmlns:svg="http://www.w3.org/2000/svg">
  <sodipodi:namedview
     id="namedview7"
     pagecolor="#ffffff"
     bordercolor="#666666"
     borderopacity="1.0"
     inkscape:pageshadow="2"
     inkscape:pageopacity="0.0"
     inkscape:pagecheckerboard="0"
     inkscape:document-units="px"
     showgrid="false"
     inkscape:zoom="0.19420595"
     inkscape:cx="1269.2907"
     inkscape:cy="1524.2628"
     inkscape:window-width="1920"
     inkscape:window-height="1177"
     inkscape:window-x="1912"
     inkscape:window-y="-8"
     inkscape:window-maximized="1"
     inkscape:current-layer="layer1"
     inkscape:rotation="-1" />
  <defs
     id="defs2" />
  <g
     inkscape:label="Layer 1"
     inkscape:groupmode="layer"
     id="layer1">
    <path
       d="m 0.16354893,270.94606 c 0,0.87963 50.66313507,77.09682 112.34047107,169.17205 L 224.84514,607.5283 v 121.59279 121.59216 h 90.31335 90.31337 V 729.12109 607.5283 L 513.40703,446.72637 c 59.47501,-88.55086 110.13814,-164.76676 112.78156,-169.17206 3.96806,-7.9303 0.87966,-8.37012 -94.71862,-8.37012 h -99.12459 l -58.15297,96.92164 c -32.1604,53.30657 -59.03392,96.04068 -60.3553,94.71928 -1.32268,-1.32269 -27.31463,-44.05615 -58.15297,-95.60088 L 199.7335,271.38653 99.72795,270.06385 c -54.628599,-0.44946 -99.56440107,0 -99.56440107,0.87965 z"
       id="path50"
       style="fill:#000000;stroke:none;stroke-width:0.440554" />
    <path
       d="m 613.54354,175.8055 c -101.1709,15.48507 -165.15522,53.44854 -198.51373,119.38476 -12.03125,22.97803 -14.21879,35.96599 -14.76584,68.43456 0,35.46582 2.18947,43.95794 18.04686,73.42928 34.99967,65.43736 107.73357,102.90066 267.41954,138.36709 65.0778,14.48656 97.89052,28.97184 111.01524,47.95356 16.40572,23.97711 14.21882,48.45441 -5.47051,69.43364 -21.32853,21.97895 -46.48449,29.47139 -89.14029,26.97432 -61.7961,-3.99372 -93.51475,-27.47386 -111.01455,-83.41999 l -8.75025,-26.47415 -42.10873,2.99848 c -22.96904,1.49606 -69.4529,4.49457 -103.35844,5.99702 -33.90618,2.00329 -62.34382,4.98895 -63.43728,6.48948 -4.37254,7.49498 14.21882,70.43143 29.5311,98.40545 34.99962,65.4367 94.06178,104.39924 182.10796,119.3847 55.78114,9.48733 180.46748,9.48733 230.7794,0 86.9527,-16.48471 155.3115,-63.93872 190.31108,-130.87404 15.8594,-30.96996 17.4999,-37.96348 17.4999,-83.91952 0,-43.45839 -2.1894,-53.44913 -14.2182,-77.4256 -37.18717,-72.43018 -93.51536,-102.90126 -265.77965,-142.8629 -51.95244,-11.98821 -102.26498,-25.4757 -111.01457,-29.47136 -34.45326,-15.98453 -33.90619,-49.95235 0,-71.43178 24.6089,-14.98546 74.37441,-15.48499 107.73355,-0.51366 19.68738,8.49276 26.24941,15.48563 40.46822,42.45929 12.57831,24.47665 19.14034,31.96973 25.70303,29.97158 4.92474,-0.99522 42.95818,2.52978 89.44204,0.51364 46.48387,0.91174 100.02607,0.96312 104.94828,-0.51364 21.3279,-5.48979 -22.67246,-106.89439 -61.50082,-142.36017 -25.70236,-23.47759 -61.79611,-41.46024 -107.73355,-52.94898 -36.64016,-9.4906 -174.45185,-14.48663 -218.20173,-7.99262 z"
       id="path36"
       style="fill:#000000;stroke:none;stroke-width:0.522661"
       sodipodi:nodetypes="sccccccccccccccccscccccccccscss" />
  </g>
</svg>
