<?xml version="1.0" encoding="UTF-8" standalone="no"?>
<!-- Created with Inkscape (http://www.inkscape.org/) -->

<svg
   width="512mm"
   height="512mm"
   viewBox="0 0 512 512"
   version="1.1"
   id="svg5"
   inkscape:version="1.1 (c68e22c387, 2021-05-23)"
   sodipodi:docname="favico2.svg"
   inkscape:export-filename="D:\Google Drive\Website\Kalvin - Portfolio Template\html\My-website\media\favico2.png"
   inkscape:export-xdpi="25.4"
   inkscape:export-ydpi="25.4"
   xmlns:inkscape="http://www.inkscape.org/namespaces/inkscape"
   xmlns:sodipodi="http://sodipodi.sourceforge.net/DTD/sodipodi-0.dtd"
   xmlns="http://www.w3.org/2000/svg"
   xmlns:svg="http://www.w3.org/2000/svg">
  <sodipodi:namedview
     id="namedview7"
     pagecolor="#ffffff"
     bordercolor="#666666"
     borderopacity="1.0"
     inkscape:pageshadow="2"
     inkscape:pageopacity="0.0"
     inkscape:pagecheckerboard="0"
     inkscape:document-units="px"
     showgrid="false"
     inkscape:zoom="0.3884119"
     inkscape:cx="920.41465"
     inkscape:cy="652.65766"
     inkscape:window-width="1920"
     inkscape:window-height="1177"
     inkscape:window-x="1912"
     inkscape:window-y="-8"
     inkscape:window-maximized="1"
     inkscape:current-layer="layer1" />
  <defs
     id="defs2" />
  <g
     inkscape:label="Layer 1"
     inkscape:groupmode="layer"
     id="layer1">
    <path
       d="m 0.84474158,130.30835 c 0,0.43939 25.30698442,38.511 56.11572442,84.50394 l 56.116054,83.62386 v 60.7374 60.73708 h 45.11285 45.11286 v -60.73708 -60.7374 l 53.91521,-80.32294 c 29.70865,-44.23246 55.01563,-82.30343 56.33606,-84.50394 1.9821,-3.9613 0.4394,-4.181 -47.31335,-4.181 h -49.5142 l -29.04827,48.41379 c -16.06459,26.62742 -29.48831,47.97374 -30.14836,47.31368 -0.6607,-0.6607 -13.64406,-22.0067 -29.04827,-47.75405 l -27.94817,-46.87332 -49.954246,-0.6607 c -27.287795,-0.22451 -49.73389242,0 -49.73389242,0.4394 z"
       id="path50"
       style="fill:#000000;stroke:none;stroke-width:0.220063" />
    <path
       d="m 307.23711,82.784278 c -50.53636,7.734979 -82.49747,26.698292 -99.16054,59.634412 -6.00979,11.47786 -7.1025,17.96554 -7.37576,34.18407 0,17.7157 1.09368,21.95764 9.01468,36.67901 17.48285,32.68693 53.81451,51.4004 133.58001,69.11641 32.50732,7.23625 48.89776,14.47186 55.45375,23.95351 8.1949,11.97692 7.10251,24.20369 -2.7326,34.68313 -10.65392,10.97881 -23.21969,14.72139 -44.52689,13.47407 -30.86807,-1.99492 -46.712,-13.7236 -55.45341,-41.66952 l -4.37088,-13.22423 -21.03393,1.49779 c -11.47338,0.7473 -34.69275,2.2451 -51.62907,2.9956 -16.93664,1.00067 -31.14166,2.49205 -31.68786,3.24159 -2.18415,3.74385 7.10251,35.18154 14.75122,49.15498 17.48283,32.68659 46.98525,52.14896 90.96562,59.63442 27.8635,4.73906 90.14617,4.73906 115.27772,0 43.43416,-8.23436 77.58039,-31.93834 95.06324,-65.37352 7.92196,-15.46995 8.74141,-18.96332 8.74141,-41.91904 0,-21.70811 -1.09367,-26.69863 -7.10218,-38.67523 -18.57556,-36.17995 -46.71232,-51.4007 -132.76088,-71.36213 -25.95101,-5.98829 -51.08287,-12.72549 -55.45342,-14.72138 -17.20991,-7.98451 -16.93664,-24.95194 0,-35.68123 12.29251,-7.48546 37.15112,-7.73498 53.8145,-0.25658 9.83414,4.24226 13.11197,7.7353 20.21448,21.20904 6.28305,12.22645 9.56088,15.96935 12.83904,14.97125 2.45998,-0.49713 21.45825,1.26366 44.67762,0.25657 23.21938,0.45543 49.9645,0.48109 52.4232,-0.25657 10.65359,-2.74223 -11.32521,-53.39533 -30.72055,-71.11101 -12.83871,-11.7274 -30.86807,-20.709999 -53.8145,-26.448773 -18.3023,-4.740669 -87.14128,-7.236248 -108.99499,-3.992412 z"
       id="path36"
       style="fill:#000000;stroke:none;stroke-width:0.261077"
       sodipodi:nodetypes="sccccccccccccccccscccccccccscss" />
  </g>
</svg>
